<svg xmlns="http://www.w3.org/2000/svg" width="79.306" height="36" viewBox="0 0 79.306 36"><path d="M0 0h79.306v36H0z" fill="#FDFEFE"/><path d="M23.513 1.993c0.315 0.191 0.315 0.191 0.531 0.531 0.121 0.64 0.07 1.144 -0.282 1.694 -0.296 0.399 -0.296 0.399 -0.171 0.758 0.481 0.87 1.559 1.515 2.446 1.933 0.315 0.072 0.607 0.106 0.93 0.133V5.445c0.751 -0.008 1.388 -0.014 2.126 0.133l-0.93 2.922h-0.93c-0.061 0.844 0.044 1.423 0.531 2.126 0.512 0.496 1.088 0.44 1.764 0.438 0.383 -0.042 0.676 -0.147 1.025 -0.307l0.188 0.171 0.25 0.221 0.247 0.221c0.493 0.38 0.97 0.379 1.571 0.319 0.568 -0.243 0.967 -0.527 1.321 -1.038 0.169 -0.504 0.227 -0.958 0.274 -1.485l-0.797 -0.133v-0.266h-0.266v0.266c-3.259 0.086 -3.259 0.086 -4.649 -0.399 -0.133 -0.133 -0.133 -0.133 -0.141 -0.473l0.009 -0.322 0.265 0.034c2.318 0.304 2.318 0.304 4.65 0.496l-0.066 -0.523a14.087 14.087 0 0 1 -0.066 -1.867l2.126 0.133c-0.418 1.556 -0.418 1.556 -0.664 2.259l0.232 -0.028a23.478 23.478 0 0 1 2.774 -0.113l0.443 0.002q0.534 0.002 1.069 0.008l-0.141 -0.358 -0.183 -0.471 -0.182 -0.466c-0.326 -0.883 -0.476 -1.814 -0.196 -2.734 0.26 -0.559 0.551 -0.975 1.1 -1.282 0.531 -0.066 0.836 -0.044 1.321 0.183l0.274 0.213v0.266l0.235 -0.174c0.841 -0.599 0.841 -0.599 1.395 -0.706 0.554 0.127 0.873 0.399 1.204 0.855 0.247 0.787 0.07 1.468 -0.247 2.201a6.511 6.511 0 0 1 -3.382 2.872l0.241 0.507 0.135 0.285c0.144 0.279 0.144 0.279 0.373 0.49 0.182 0.18 0.182 0.18 0.182 0.446l0.216 0.1c0.316 0.166 0.316 0.166 0.698 0.43 0.455 0.315 0.455 0.315 1.213 0.531l-0.93 -2.259a10.956 10.956 0 0 1 2.126 -0.399l0.025 0.476 0.034 0.62 0.016 0.313 0.017 0.304 0.014 0.279c0.028 0.277 0.086 0.531 0.16 0.8 2.046 -0.31 3.847 -0.967 5.713 -1.861 -0.052 -0.512 -0.128 -0.959 -0.34 -1.429 -0.191 -0.43 -0.191 -0.43 -0.191 -0.83l0.764 -0.199 0.43 -0.113c0.401 -0.086 0.401 -0.086 0.931 -0.086v1.593a7.356 7.356 0 0 0 1.861 -1.063l-0.21 -0.332c-0.254 -0.59 -0.28 -0.889 -0.199 -1.528 0.263 -0.396 0.451 -0.61 0.922 -0.728 0.531 -0.038 0.761 0.031 1.204 0.346 0.315 0.452 0.355 0.64 0.266 1.179 -0.199 0.382 -0.199 0.382 -0.399 0.664 0.902 0.069 1.562 -0.041 2.387 -0.415 0.269 -0.116 0.269 -0.116 0.535 -0.116l0.133 -0.531 0.34 -0.017c0.47 -0.119 0.59 -0.211 0.93 -0.531 0.233 -0.218 0.233 -0.218 0.457 -0.382 0.39 0.017 0.39 0.017 0.664 0.133 -0.091 0.671 -0.542 0.925 -1.052 1.315 -1.368 0.928 -2.666 1.503 -4.328 1.442 -0.823 -0.014 -1.268 0.08 -1.883 0.631 -0.188 0.199 -0.188 0.199 -0.308 0.466l0.495 0.095c0.814 0.182 1.576 0.477 2.353 0.778l0.438 0.166c1.047 0.398 1.047 0.398 1.363 0.556 -0.194 0.581 -0.51 1.016 -0.889 1.485l-0.357 0.459 -0.178 0.227a51.652 51.652 0 0 0 -0.728 0.949l-0.23 0.302c-0.194 0.398 -0.152 0.542 -0.011 0.959q0.244 0.554 0.523 1.096l0.146 0.296c0.232 0.523 0.232 0.523 0.659 0.869 0.086 0.221 0.086 0.221 0.169 0.512 0.244 0.778 0.61 1.481 0.985 2.204l0.401 0.781 0.178 0.344c0.127 0.279 0.127 0.279 0.127 0.545 -0.358 0.283 -0.762 0.506 -1.154 0.739l-0.36 0.214c-1.262 0.736 -2.578 1.301 -3.932 1.836l-0.416 0.172c-1.017 0.404 -2.088 0.62 -3.159 0.834q-0.351 0.072 -0.698 0.149c-1.518 0.291 -3.088 0.197 -4.627 0.172l-0.03 -0.254 -0.144 -1.207 -0.055 -0.451a195.651 195.651 0 0 0 -0.286 -2.293l-0.055 -0.424q-0.052 -0.399 -0.106 -0.797a15.652 15.652 0 0 1 -0.122 -2.41l-0.346 -0.047a7.826 7.826 0 0 1 -1.315 -0.388l-0.482 -0.18 -0.498 -0.188 -0.507 -0.189 -1.235 -0.466c0 -0.47 0.088 -0.567 0.365 -0.933l0.236 -0.316 0.254 -0.335 1.003 -1.337 0.39 -0.521q0.402 -0.538 0.806 -1.072l-0.238 -0.152c-1.013 -0.656 -2.273 -1.6 -2.645 -2.808l-0.041 -0.23 -0.274 0.063c-0.601 0.11 -1.207 0.13 -1.814 0.166a4.696 4.696 0 0 0 -0.967 0.171l0.266 0.2c1.665 1.282 1.665 1.282 1.858 2.342 0 0.562 -0.036 0.758 -0.399 1.179 -0.697 0.554 -1.368 0.797 -2.259 0.797l0.136 0.463 0.18 0.64 0.089 0.301c0.596 2.165 0.562 4.431 0.542 6.657l-0.005 0.79q-0.005 0.955 -0.013 1.906c-2.924 0.315 -2.924 0.315 -4.251 0.307l-0.415 -0.003c-4.361 -0.067 -8.828 -0.941 -12.601 -3.226 0.578 -3.583 2.401 -6.893 4.251 -9.963l-0.243 -0.146c-0.643 -0.404 -1.15 -0.739 -1.484 -1.448 -0.081 -0.452 -0.091 -0.745 0.114 -1.163 0.612 -0.842 1.622 -1.211 2.543 -1.628l-0.296 -0.205c-0.707 -0.499 -1.321 -0.952 -1.828 -1.654l-0.257 0.066c-1.006 0.166 -1.814 0.146 -2.666 -0.463 -0.44 -0.398 -0.77 -0.72 -0.847 -1.321l0.05 -0.274c0.291 0.017 0.291 0.017 0.664 0.133a23.478 23.478 0 0 1 0.664 0.797c0.416 0.271 0.739 0.296 1.229 0.282l0.358 -0.008 0.272 -0.009 -0.199 -0.415c-0.194 -0.459 -0.265 -0.809 -0.199 -1.312 0.358 -0.753 0.751 -1.033 1.593 -0.93" fill="#E45092"/><path d="M55.269 4.984c0.46 0.116 0.656 0.349 0.922 0.728 0.103 0.617 -0.044 0.958 -0.399 1.462 0.902 0.069 1.562 -0.041 2.387 -0.415 0.271 -0.116 0.271 -0.116 0.535 -0.116l0.133 -0.531 0.34 -0.017c0.47 -0.119 0.59 -0.211 0.93 -0.531 0.233 -0.218 0.233 -0.218 0.457 -0.382 0.39 0.017 0.39 0.017 0.664 0.133 -0.091 0.671 -0.542 0.925 -1.052 1.315 -1.368 0.928 -2.666 1.503 -4.328 1.442 -0.823 -0.014 -1.268 0.08 -1.883 0.631 -0.188 0.199 -0.188 0.199 -0.308 0.466l0.495 0.095c0.814 0.182 1.576 0.477 2.353 0.778l0.438 0.166c1.047 0.398 1.047 0.398 1.363 0.556 -0.194 0.581 -0.51 1.016 -0.889 1.485l-0.357 0.459 -0.178 0.227a51.652 51.652 0 0 0 -0.728 0.949l-0.23 0.302c-0.194 0.398 -0.152 0.542 -0.011 0.959q0.244 0.556 0.523 1.096l0.146 0.296c0.232 0.523 0.232 0.523 0.659 0.869 0.086 0.221 0.086 0.221 0.169 0.512 0.244 0.778 0.61 1.481 0.985 2.204l0.401 0.781 0.178 0.344c0.127 0.279 0.127 0.279 0.127 0.545 -0.358 0.283 -0.762 0.506 -1.154 0.739l-0.36 0.214c-1.262 0.736 -2.578 1.301 -3.932 1.836l-0.416 0.172c-1.017 0.404 -2.088 0.62 -3.159 0.834q-0.351 0.072 -0.698 0.149c-1.518 0.291 -3.088 0.197 -4.627 0.172l-0.03 -0.254 -0.144 -1.207 -0.055 -0.451a195.651 195.651 0 0 0 -0.286 -2.293l-0.055 -0.424q-0.052 -0.399 -0.106 -0.797a15.652 15.652 0 0 1 -0.122 -2.41l-0.346 -0.047a7.826 7.826 0 0 1 -1.315 -0.388l-0.482 -0.18 -0.498 -0.188 -0.507 -0.189 -1.235 -0.466c0 -0.463 0.08 -0.553 0.351 -0.914l0.23 -0.308 0.25 -0.329 0.254 -0.338 0.52 -0.692q0.365 -0.484 0.726 -0.97l0.427 -0.574 0.202 -0.271c0.243 -0.322 0.476 -0.632 0.762 -0.917l0.266 0.133 -0.93 -2.259a10.956 10.956 0 0 1 2.126 -0.399l0.025 0.476 0.034 0.62 0.016 0.313 0.017 0.304 0.014 0.279c0.028 0.277 0.086 0.531 0.16 0.8 2.046 -0.31 3.847 -0.967 5.713 -1.861 -0.052 -0.512 -0.128 -0.959 -0.34 -1.429 -0.194 -0.432 -0.194 -0.432 -0.194 -0.831l0.764 -0.199 0.43 -0.113c0.401 -0.086 0.401 -0.086 0.931 -0.086V8.64a7.356 7.356 0 0 0 1.861 -1.063l-0.199 -0.337c-0.254 -0.59 -0.28 -0.889 -0.199 -1.528 0.401 -0.601 0.77 -0.776 1.47 -0.728" fill="#1CBAB5"/><path d="M43.306 2.791c0.449 0.286 0.767 0.548 0.93 1.063 0.117 0.986 -0.208 1.819 -0.786 2.606 -0.817 0.95 -1.748 1.739 -2.935 2.176l0.241 0.507 0.135 0.285c0.144 0.279 0.144 0.279 0.373 0.49 0.182 0.18 0.182 0.18 0.182 0.446l0.216 0.1c0.316 0.166 0.316 0.166 0.723 0.44 0.374 0.271 0.374 0.271 0.789 0.39l-0.266 0.664c-1.305 -0.153 -2.096 -1.274 -2.863 -2.234a1.878 1.878 0 0 1 -0.327 -0.82l-0.29 0.064c-0.623 0.114 -1.246 0.103 -1.878 0.11l-0.404 0.011c-0.891 0.008 -1.448 -0.122 -2.21 -0.584v-0.133a20.348 20.348 0 0 1 2.864 -0.141l0.443 0.002q0.538 0.002 1.075 0.008l-0.141 -0.358 -0.183 -0.471 -0.182 -0.466c-0.326 -0.883 -0.476 -1.814 -0.196 -2.734 0.26 -0.559 0.551 -0.975 1.1 -1.282 0.531 -0.066 0.836 -0.044 1.321 0.183l0.277 0.214v0.266l0.235 -0.174c1.088 -0.776 1.088 -0.776 1.758 -0.623" fill="#5C3A45"/><path d="m52.206 7.042 0.008 1.52 0.003 0.438 0.002 0.416 0.002 0.387c-0.014 0.296 -0.014 0.296 -0.146 0.429a15.652 15.652 0 0 0 -0.108 0.54c-0.214 1.002 -0.657 1.994 -1.521 2.59 -1.222 0.761 -2.332 1.105 -3.775 0.773 -1.047 -0.368 -1.935 -1.047 -2.434 -2.043l-0.247 -0.222c-0.416 -0.454 -0.612 -0.977 -0.85 -1.539l-0.146 -0.338 -0.352 -0.826a10.643 10.643 0 0 1 2.126 -0.399l0.025 0.476 0.034 0.62 0.016 0.313 0.017 0.304 0.014 0.279c0.028 0.277 0.086 0.531 0.16 0.8 2.046 -0.31 3.847 -0.967 5.713 -1.861 -0.052 -0.512 -0.128 -0.959 -0.34 -1.429 -0.191 -0.43 -0.191 -0.43 -0.191 -0.83l0.772 -0.199 0.434 -0.113c0.388 -0.086 0.388 -0.086 0.786 -0.086" fill="#EAA841"/><path d="M25.771 15.409c1.612 0.061 3.176 0.376 4.757 0.673l0.82 0.152 1.994 0.369c-0.131 1.016 -0.421 1.703 -1.226 2.368 -1.122 0.767 -2.061 0.966 -3.425 0.819a5.478 5.478 0 0 1 -1.327 -0.664l-0.365 -0.224c-0.715 -0.734 -1.201 -1.593 -1.243 -2.626z" fill="#F1B0D0"/><path d="M38.532 29.035c0.681 0.373 1.124 0.908 1.503 1.576 0.221 0.905 0.092 1.647 -0.315 2.467 -0.391 0.639 -0.891 0.97 -1.593 1.196 -0.671 0.103 -1.165 0.081 -1.777 -0.224 -0.653 -0.574 -1.071 -1.129 -1.199 -2.003 -0.033 -1.046 0.163 -1.755 0.851 -2.556 0.783 -0.701 1.546 -0.887 2.531 -0.457" fill="#5B3844"/><path d="M49.417 15.676c0.274 0.008 0.274 0.008 0.664 0.133a15.652 15.652 0 0 1 0.39 0.473c0.343 0.373 0.491 0.451 1.003 0.509q0.498 -0.009 0.997 -0.044l0.401 -0.008 0.266 0.266c-0.038 0.429 -0.164 0.729 -0.349 1.121 -0.244 0.632 -0.163 0.997 0.091 1.611 0.135 0.352 0.146 0.614 0.124 0.988a4.07 4.07 0 0 1 -1.37 0.083c-0.623 -0.013 -0.887 0.092 -1.337 0.523l-0.236 0.266c-0.244 0.189 -0.244 0.189 -0.607 0.152l-0.302 -0.095c-0.305 -1.251 -0.305 -1.251 -0.266 -1.861l-0.349 -0.1a5.165 5.165 0 0 1 -1.246 -0.697c0.03 -0.31 0.03 -0.31 0.133 -0.664 0.265 -0.21 0.265 -0.21 0.59 -0.374l0.322 -0.169c0.283 -0.121 0.283 -0.121 0.548 -0.121l0.049 -0.335 0.067 -0.437 0.064 -0.434c0.085 -0.388 0.085 -0.388 0.351 -0.787" fill="#EFA83B"/><path d="m42.135 28.909 0.299 -0.009c0.751 -0.005 1.19 0.149 1.802 0.59 0.506 0.643 0.781 1.415 0.728 2.235 -0.153 0.692 -0.515 1.185 -1.069 1.617 -0.681 0.199 -1.346 0.164 -2.05 0.133v0.93c-0.315 0.083 -0.315 0.083 -0.664 0.133 -0.385 -0.385 -0.329 -0.794 -0.349 -1.312l-0.014 -0.316a76.695 76.695 0 0 1 -0.061 -2.49l-0.005 -0.349c0 -0.282 0.014 -0.565 0.03 -0.847 0.394 -0.394 0.825 -0.315 1.354 -0.315" fill="#5B3844"/><path d="M51.541 28.826c0.282 0.05 0.282 0.05 0.531 0.133 0.205 0.523 0.055 0.872 -0.127 1.39l-0.086 0.249 -0.183 0.521 -0.275 0.787c-0.301 0.864 -0.62 1.694 -1.057 2.5h-0.664c-0.481 -1.011 -0.97 -2.05 -0.93 -3.188h-0.266l-0.05 0.401a12.522 12.522 0 0 1 -0.34 1.568l-0.067 0.269c-0.174 0.654 -0.174 0.654 -0.471 0.952 -0.482 0.017 -0.482 0.017 -0.93 0a6.104 6.104 0 0 1 -0.612 -1.636l-0.105 -0.474 -0.105 -0.49 -0.11 -0.491c-0.301 -1.376 -0.301 -1.376 -0.263 -1.958 0.133 -0.133 0.133 -0.133 0.473 -0.141l0.326 0.008c0.194 0.362 0.318 0.692 0.404 1.091l0.067 0.316 0.067 0.327 0.136 0.643 0.061 0.286c0.063 0.283 0.063 0.283 0.191 0.656l0.069 -0.241q0.155 -0.537 0.313 -1.072l0.108 -0.377 0.106 -0.362 0.097 -0.332c0.106 -0.274 0.106 -0.274 0.371 -0.538 0.39 -0.058 0.39 -0.058 0.797 0 0.332 0.457 0.512 0.938 0.689 1.47l0.138 0.41c0.103 0.377 0.103 0.377 0.103 0.908h0.266l0.038 -0.316c0.122 -0.618 0.332 -1.186 0.551 -1.775l0.127 -0.347 0.235 -0.632c0.113 -0.25 0.113 -0.25 0.379 -0.515" fill="#5A3843"/><path d="M28.429 7.306h0.133l0.133 1.196c1.532 0.46 3.062 0.493 4.649 0.531v-0.266h0.266v0.266l0.797 0.133c0.069 0.778 -0.008 1.246 -0.459 1.891 -0.451 0.513 -0.916 0.734 -1.601 0.833 -0.769 -0.11 -1.324 -0.513 -1.927 -0.997l-0.221 0.13c-0.568 0.249 -1.163 0.205 -1.772 0.136 -0.664 -0.29 -0.949 -0.682 -1.238 -1.324a2.285 2.285 0 0 1 -0.091 -1.067l0.133 -0.266h0.93z" fill="#F0AFCE"/><path d="M59.969 29.175c0.648 0.601 0.906 1.022 0.945 1.91 -0.022 0.781 -0.208 1.049 -0.739 1.593 -0.056 0.366 -0.056 0.366 0 0.664l0.93 0.399c-0.116 0.648 -0.116 0.648 -0.266 0.797 -0.493 0.056 -0.734 0.038 -1.161 -0.224 -0.421 -0.434 -0.565 -0.767 -0.565 -1.37h-0.93l0.008 0.28 0.008 0.366 0.008 0.365c-0.025 0.316 -0.025 0.316 -0.29 0.584 -0.604 -0.074 -0.604 -0.074 -0.797 -0.266a25.043 25.043 0 0 1 -0.031 -1.046l-0.003 -0.318 -0.005 -0.668 -0.014 -1.022 -0.003 -0.648 -0.008 -0.31c0.003 -0.707 0.003 -0.707 0.308 -1.03 0.826 -0.404 1.772 -0.451 2.603 -0.058" fill="#593642"/><path d="M54.598 28.826c0.466 0.98 0.819 1.988 1.161 3.015l0.166 0.482 0.155 0.466 0.141 0.421c0.105 0.415 0.119 0.77 0.1 1.197l-0.664 0.133c-0.313 -0.476 -0.415 -0.748 -0.531 -1.327l-2.126 -0.133 -0.116 0.581c-0.116 0.581 -0.116 0.581 -0.415 0.88 -0.47 -0.07 -0.47 -0.07 -0.664 -0.266a7.356 7.356 0 0 1 0.451 -2.024l0.095 -0.26 0.199 -0.538 0.301 -0.825 0.194 -0.526 0.177 -0.479c0.332 -0.739 0.568 -0.847 1.373 -0.794" fill="#5A3843"/><path d="M33.344 28.959q0.398 -0.008 0.797 0c0.275 0.275 0.155 0.862 0.155 1.241l0.002 0.337 0.002 0.707 0.005 1.085 0.002 0.686 0.003 0.329c-0.003 0.765 -0.003 0.765 -0.299 1.063 -0.604 -0.074 -0.604 -0.074 -0.797 -0.266a25.043 25.043 0 0 1 -0.008 -1.005l0.002 -0.286 0.008 -0.703h-1.726l0.008 0.426 0.008 0.553 0.008 0.28a10.956 10.956 0 0 1 -0.023 0.731l-0.266 0.266c-0.604 -0.074 -0.604 -0.074 -0.797 -0.266a25.043 25.043 0 0 1 -0.022 -1.05l-0.002 -0.319 -0.002 -0.67 -0.005 -1.027 -0.002 -0.65 -0.003 -0.313c0.003 -0.725 0.003 -0.725 0.299 -1.022 0.604 0.074 0.604 0.074 0.797 0.266q0.014 0.47 0.008 0.938l-0.005 0.518 -0.005 0.404 1.726 -0.133 -0.005 -0.398 -0.005 -0.515 -0.005 -0.513c0.014 -0.434 0.014 -0.434 0.147 -0.698" fill="#613F4A"/><path d="M28.294 28.826c0.551 0.197 0.917 0.404 1.196 0.93 0.033 0.357 0.033 0.357 0 0.664 -0.133 0.133 -0.133 0.133 -0.44 0.183l-0.357 -0.05 -0.241 -0.332c-0.247 -0.352 -0.247 -0.352 -0.554 -0.382 -0.329 -0.006 -0.329 -0.006 -0.798 0.049 -0.178 0.149 -0.178 0.149 -0.149 0.531 -0.028 0.383 -0.028 0.383 0.149 0.531q0.377 0.059 0.756 0.108c0.79 0.127 1.318 0.271 1.819 0.93 0.161 0.563 0.163 1.039 -0.075 1.576a3.287 3.287 0 0 1 -1.171 0.97c-0.789 0.083 -1.431 0.011 -2.126 -0.399 -0.338 -0.398 -0.515 -0.65 -0.573 -1.171 0.041 -0.288 0.041 -0.288 0.174 -0.421 0.307 -0.058 0.307 -0.058 0.664 0 0.291 0.39 0.291 0.39 0.531 0.797 0.368 0.185 0.656 0.158 1.063 0.133l0.399 -0.266c0.099 -0.474 0.099 -0.474 0.133 -0.93l-0.476 -0.069 -0.62 -0.099 -0.313 -0.044c-0.617 -0.1 -0.995 -0.189 -1.381 -0.72 -0.16 -0.481 -0.175 -0.823 -0.133 -1.327 0.623 -1.16 1.271 -1.33 2.525 -1.196m34.064 0.108 0.401 0.005 0.434 0.003 0.454 0.008 0.457 0.005 1.121 0.013c0.083 0.315 0.083 0.315 0.133 0.664 -0.266 0.266 -0.266 0.266 -0.786 0.293l-0.626 -0.008 -0.322 -0.005 -0.79 -0.013v1.196h2.126l0.133 0.664c-0.266 0.266 -0.266 0.266 -0.728 0.293l-0.551 -0.008 -0.283 -0.005 -0.692 -0.014v1.462h2.525l0.133 0.664c-0.347 0.347 -0.496 0.299 -0.98 0.301l-0.43 0.002 -0.451 -0.003 -0.451 0.003 -0.43 -0.002 -0.394 -0.002c-0.319 -0.034 -0.319 -0.034 -0.584 -0.299a14.087 14.087 0 0 1 -0.034 -1.091l-0.002 -0.327 0.002 -0.686q0.002 -0.526 -0.002 -1.052l0.002 -0.667 -0.002 -0.319c0.008 -1.011 0.008 -1.011 0.625 -1.069" fill="#5A3843"/><path d="M55.269 4.984c0.46 0.116 0.656 0.349 0.922 0.728 0.103 0.617 -0.044 0.958 -0.399 1.462 0.902 0.069 1.562 -0.041 2.387 -0.415 0.271 -0.116 0.271 -0.116 0.535 -0.116l0.133 -0.531 0.34 -0.017c0.47 -0.119 0.59 -0.211 0.93 -0.531 0.233 -0.218 0.233 -0.218 0.457 -0.382 0.39 0.017 0.39 0.017 0.664 0.133 -0.091 0.671 -0.542 0.925 -1.052 1.315 -1.365 0.927 -2.661 1.504 -4.322 1.432 -0.917 -0.022 -1.29 0.164 -1.942 0.783 -0.258 0.188 -0.258 0.188 -0.537 0.191 -0.26 -0.077 -0.26 -0.077 -0.651 -0.268 0.441 -0.477 0.928 -0.826 1.462 -1.196l-0.196 -0.332c-0.254 -0.59 -0.28 -0.889 -0.199 -1.528 0.401 -0.601 0.77 -0.776 1.47 -0.728" fill="#5A3A45"/><path d="M42.859 3.53c0.315 0.058 0.315 0.058 0.581 0.322 0.121 0.848 -0.08 1.352 -0.545 2.063a6.496 6.496 0 0 1 -2.379 1.922h-0.531l-0.257 -0.697 -0.146 -0.391c-0.319 -0.917 -0.454 -1.805 -0.045 -2.713 0.315 -0.316 0.315 -0.316 0.722 -0.407 0.39 0.092 0.39 0.092 0.639 0.382 0.152 0.382 0.185 0.632 0.149 1.038h0.664l0.1 -0.357c0.214 -0.571 0.404 -1.055 1.046 -1.161" fill="#FAF9FA"/><path d="M23.513 1.993c0.315 0.191 0.315 0.191 0.531 0.531 0.121 0.64 0.07 1.144 -0.282 1.694 -0.296 0.399 -0.296 0.399 -0.171 0.758 0.538 0.977 1.741 1.576 2.709 2.065v0.133c-0.634 0.175 -1.121 0.241 -1.719 -0.067 -0.673 -0.482 -1.249 -0.991 -1.734 -1.661l-0.257 0.066c-1.006 0.166 -1.814 0.146 -2.666 -0.463 -0.44 -0.398 -0.77 -0.72 -0.847 -1.321l0.05 -0.274c0.291 0.017 0.291 0.017 0.664 0.133a23.478 23.478 0 0 1 0.664 0.797c0.416 0.271 0.739 0.296 1.229 0.282l0.358 -0.008 0.272 -0.009 -0.199 -0.415c-0.194 -0.459 -0.265 -0.809 -0.199 -1.312 0.358 -0.753 0.751 -1.033 1.593 -0.93" fill="#5C3945"/><path d="m33.344 5.978 2.126 0.133a28.174 28.174 0 0 1 -0.93 2.922h-0.93v-0.266h-0.266v0.266c-3.259 0.086 -3.259 0.086 -4.649 -0.399 -0.133 -0.133 -0.133 -0.133 -0.141 -0.473l0.008 -0.322 0.265 0.034c2.318 0.304 2.318 0.304 4.65 0.496l-0.066 -0.523a14.087 14.087 0 0 1 -0.066 -1.867" fill="#5A3743"/><path d="M18.584 28.942a51.652 51.652 0 0 1 2.412 0.067l0.302 0.011c0.722 0.041 0.722 0.041 1.017 0.335l-0.133 0.664h-1.592v4.384l-0.664 0.133c-0.266 -0.266 -0.266 -0.266 -0.296 -0.686q0 -0.268 0.005 -0.535l0.002 -0.285 0.008 -0.902 0.005 -0.61 0.013 -1.498 -0.28 0.008 -0.366 0.008 -0.365 0.008c-0.316 -0.025 -0.316 -0.025 -0.584 -0.291 0.097 -0.784 0.097 -0.784 0.518 -0.815" fill="#583540"/><path d="M13.902 28.953q0.75 0.022 1.499 0.049l0.529 0.014 0.504 0.017 0.465 0.014c0.369 0.044 0.369 0.044 0.637 0.311l-0.133 0.664h-1.593v4.384l-0.664 0.133c-0.266 -0.266 -0.266 -0.266 -0.296 -0.686q0 -0.268 0.005 -0.535l0.002 -0.285 0.008 -0.902 0.005 -0.61 0.013 -1.498 -0.28 0.008 -0.366 0.008 -0.365 0.008c-0.316 -0.027 -0.316 -0.027 -0.584 -0.293 0.097 -0.794 0.097 -0.794 0.618 -0.803" fill="#573440"/><path d="M37.864 29.836c0.418 0.083 0.639 0.279 0.925 0.584 0.357 0.595 0.371 1.185 0.266 1.861 -0.219 0.427 -0.534 0.697 -0.913 0.988 -0.441 0.116 -0.772 0.052 -1.213 -0.058 -0.351 -0.283 -0.546 -0.553 -0.797 -0.93 -0.075 -0.909 0.088 -1.423 0.623 -2.174 0.369 -0.26 0.659 -0.291 1.108 -0.268" fill="#FAF9FA"/><path d="M33.344 8.767h0.266v0.266l0.797 0.133c0.069 0.778 -0.008 1.246 -0.459 1.891 -0.451 0.513 -0.916 0.734 -1.601 0.833 -0.754 -0.108 -1.216 -0.396 -1.719 -0.963l-0.207 -0.299 0.133 -0.266c0.277 -0.036 0.277 -0.036 0.623 -0.05 0.637 -0.052 1.006 -0.191 1.503 -0.614 0.243 -0.28 0.243 -0.28 0.399 -0.531h-1.063v-0.133h1.327z" fill="#F0AECE"/><path d="M50.877 10.628c-0.041 0.794 -0.394 1.301 -0.93 1.861 -0.942 0.695 -1.916 0.79 -3.055 0.664a4.07 4.07 0 0 1 -1.063 -0.664c0.373 -0.373 0.815 -0.438 1.312 -0.573a21.13 21.13 0 0 0 2.806 -1.021c0.628 -0.266 0.628 -0.266 0.93 -0.266" fill="#FAFAF9"/><path d="M28.826 8.767c0.894 -0.031 1.762 0.088 2.65 0.199l0.466 0.058 1.135 0.142c-0.29 0.631 -0.668 0.938 -1.294 1.237 -0.761 0.161 -1.379 0.089 -2.066 -0.274a4.226 4.226 0 0 1 -0.889 -0.963z" fill="#FEFDFD"/><path d="M41.844 30.022c1.346 -0.08 1.346 -0.08 1.819 0.249 0.247 0.59 0.294 1.113 0.174 1.744 -0.266 0.349 -0.266 0.349 -0.664 0.531 -0.463 0.059 -0.9 0.08 -1.327 -0.133z" fill="#FCFCFC"/><path d="M51.012 9.696v0.797a20.348 20.348 0 0 1 -3.098 1.387l-0.293 0.103c-0.665 0.219 -1.359 0.373 -2.057 0.236 -0.235 -0.186 -0.235 -0.186 -0.399 -0.399v-0.266l0.462 -0.094a20.817 20.817 0 0 0 4.832 -1.645c0.286 -0.121 0.286 -0.121 0.551 -0.121" fill="#5C3A45"/><path d="M44.767 8.767v3.055l-0.797 0.133 -0.515 -1.021 -0.147 -0.29a15.652 15.652 0 0 1 -0.667 -1.478l0.44 -0.124c0.654 -0.188 0.977 -0.275 1.686 -0.275" fill="#56333F"/><path d="m26.967 5.445 0.689 -0.008 0.387 -0.005c0.385 0.013 0.385 0.013 1.049 0.146l-0.93 2.922 -0.93 -0.133 -0.133 -1.013 -0.039 -0.286a10.956 10.956 0 0 1 -0.094 -1.623" fill="#56323E"/><path d="m52.206 7.042 0.008 1.52 0.003 0.438 0.002 0.416 0.002 0.387c-0.014 0.296 -0.014 0.296 -0.146 0.429q-0.332 0.008 -0.664 0l-0.523 -1.021 -0.15 -0.29c-0.249 -0.491 -0.454 -0.927 -0.523 -1.479l0.772 -0.199 0.434 -0.113c0.388 -0.086 0.388 -0.086 0.786 -0.086" fill="#57343F"/><path d="M58.05 30.022c1.186 -0.08 1.186 -0.08 1.678 0.199 0.28 0.51 0.265 0.817 0.183 1.395 -0.379 0.379 -0.714 0.421 -1.229 0.432 -0.498 -0.033 -0.498 -0.033 -0.631 -0.166a25.043 25.043 0 0 1 -0.008 -0.938l0.005 -0.518z" fill="#F7F6F7"/><path d="m21.122 10.759 0.664 0.133c0.135 0.357 0.163 0.587 0.023 0.944a15.652 15.652 0 0 1 -0.423 0.783c-0.521 -0.243 -0.895 -0.556 -1.327 -0.93l0.133 -0.664c0.515 0.116 0.515 0.116 0.664 0.266z" fill="#E65998"/><path d="m60.826 16.771 0.282 0.1 -0.066 0.241a1.722 1.722 0 0 0 0.017 0.963l0.049 0.257 -0.266 0.266c-0.697 0 -1.116 -0.479 -1.593 -0.93 0.927 -0.953 0.927 -0.953 1.576 -0.897" fill="#E65898"/><path d="M19.952 12.877c0.574 0.218 0.862 0.686 1.171 1.204v0.266c-1.251 0.482 -1.251 0.482 -1.861 0.266 0.077 -0.382 0.114 -0.512 0.399 -0.797l-0.133 -0.133c-0.017 -0.332 -0.017 -0.332 0 -0.664 0.133 -0.133 0.133 -0.133 0.423 -0.141" fill="#E65897"/><path d="M52.074 2.922c0.282 0.05 0.282 0.05 0.531 0.133v0.664h0.664l0.133 0.531c-0.418 0.371 -0.673 0.445 -1.229 0.423l-0.358 -0.011 -0.272 -0.013 0.116 -0.714 0.064 -0.402c0.085 -0.346 0.085 -0.346 0.351 -0.61m-20.456 0.532 0.664 0.133v0.399l0.399 -0.266c0.357 0.05 0.357 0.05 0.664 0.133 0 0.282 0 0.282 -0.133 0.664 -0.85 0.797 -0.85 0.797 -1.327 0.797a4.852 4.852 0 0 1 -0.266 -1.861" fill="#E65797"/><path d="m50.082 3.32 0.664 0.133a4.07 4.07 0 0 1 -0.531 1.726c-0.495 -0.166 -0.707 -0.423 -1.063 -0.797l-0.266 -0.266c0.05 -0.282 0.05 -0.282 0.133 -0.531 0.648 0.116 0.648 0.116 0.797 0.266z" fill="#E65696"/><path d="M54.065 30.288c0.438 0.438 0.49 0.634 0.623 1.221l0.1 0.437 0.074 0.333h-1.462z" fill="#F3F0F1"/><path d="m36.266 2.39 0.93 0.797 -0.797 0.93 -0.93 -0.797zm4.118 15.942c0.383 0.172 0.646 0.352 0.93 0.664a2.661 2.661 0 0 1 -0.664 0.93 2.661 2.661 0 0 1 -0.93 -0.664 2.567 2.567 0 0 1 0.664 -0.93" fill="#F4AC42"/><path d="m61.904 13.018 0.797 0.664a2.661 2.661 0 0 1 -0.664 0.93c-0.382 -0.171 -0.661 -0.343 -0.93 -0.664v-0.266a21.913 21.913 0 0 1 0.797 -0.664" fill="#F4AB40"/><path d="M16.604 16.604c0.446 0.185 0.662 0.396 0.93 0.797l-0.664 0.664c-0.446 -0.185 -0.662 -0.396 -0.93 -0.797z" fill="#F4A839"/><path d="M54.864 5.713c0.282 0.05 0.282 0.05 0.531 0.133 -0.033 0.382 -0.033 0.382 -0.133 0.797 -0.274 0.183 -0.274 0.183 -0.531 0.266 -0.266 -0.399 -0.266 -0.399 -0.232 -0.673 0.1 -0.258 0.1 -0.258 0.365 -0.524" fill="#F2EFF0"/><path d="m37.063 20.06 0.531 0.133v0.531h-0.266l-0.133 3.32h-0.133z" fill="#C9B4CA"/><path d="M22.849 2.791h0.531c-0.116 0.897 -0.116 0.897 -0.266 1.196h-0.266c-0.116 -0.817 -0.116 -0.817 -0.133 -1.063z" fill="#E9E4E5"/><path d="M41.844 19.927h0.266c0.149 0.307 0.149 0.307 0.266 0.664l-0.266 0.399 -0.531 -0.266c0 -0.531 0 -0.531 0.266 -0.797" fill="#F5B352"/><path d="m62.435 15.409 0.531 0.399 -0.266 0.531 -0.531 -0.133c0 -0.531 0 -0.531 0.266 -0.797" fill="#F4AE46"/><path d="m17.934 15.409 0.531 0.266v0.399l-0.531 0.266 -0.266 -0.266c0.07 -0.47 0.07 -0.47 0.266 -0.664" fill="#F4AE47"/><path d="m27.366 2.922 0.531 0.399 -0.266 0.531 -0.531 -0.133c0 -0.531 0 -0.531 0.266 -0.797" fill="#F4AE48"/></svg>