<?xml version="1.0" encoding="UTF-8"?>
<svg xmlns="http://www.w3.org/2000/svg" xmlns:xlink="http://www.w3.org/1999/xlink" width="124" height="36" fill="none" viewBox="0 0 124 36" version="1.1">
<g id="surface1">
<path style=" stroke:none;fill-rule:nonzero;fill:rgb(7.450981%,12.156863%,25.882354%);fill-opacity:1;" d="M 112.222656 29.675781 C 112.214844 29.585938 112.1875 26.089844 112.167969 21.914062 C 112.132812 15.324219 112.15625 14.289062 112.328125 14.117188 C 112.46875 13.976562 112.816406 13.917969 113.507812 13.917969 C 114.78125 13.917969 114.914062 13.976562 114.914062 14.535156 C 114.914062 14.996094 115.128906 15.152344 115.265625 14.792969 C 115.359375 14.542969 116.722656 13.863281 116.902344 13.972656 C 116.972656 14.019531 117.070312 13.996094 117.117188 13.921875 C 117.242188 13.714844 119.167969 13.761719 119.925781 13.988281 C 121.46875 14.457031 122.910156 15.925781 123.46875 17.609375 C 123.714844 18.347656 123.753906 18.710938 123.707031 19.851562 C 123.660156 21.050781 123.601562 21.320312 123.21875 22.117188 C 122.421875 23.769531 120.828125 24.972656 118.964844 25.316406 C 117.929688 25.511719 116.605469 25.226562 115.75 24.625 L 115.179688 24.226562 L 115.179688 29.84375 L 113.710938 29.84375 C 112.632812 29.84375 112.238281 29.800781 112.222656 29.675781 Z M 55.003906 24.824219 C 54.910156 24.582031 55.03125 24.222656 55.207031 24.222656 C 55.277344 24.222656 55.296875 24.160156 55.25 24.082031 C 55.203125 24.007812 55.222656 23.871094 55.296875 23.78125 C 55.371094 23.691406 55.429688 23.589844 55.425781 23.554688 C 55.414062 23.375 55.773438 22.347656 55.847656 22.347656 C 55.890625 22.347656 55.941406 22.222656 55.949219 22.070312 C 55.964844 21.917969 56.089844 21.5625 56.238281 21.28125 C 56.382812 21 56.46875 20.734375 56.425781 20.691406 C 56.378906 20.644531 56.417969 20.609375 56.507812 20.609375 C 56.597656 20.609375 56.636719 20.550781 56.589844 20.476562 C 56.546875 20.40625 56.585938 20.210938 56.679688 20.042969 C 56.769531 19.875 56.832031 19.695312 56.816406 19.640625 C 56.800781 19.585938 56.851562 19.539062 56.929688 19.539062 C 57.007812 19.539062 57.035156 19.480469 56.988281 19.40625 C 56.945312 19.332031 56.957031 19.269531 57.015625 19.269531 C 57.074219 19.269531 57.132812 19.113281 57.144531 18.917969 C 57.15625 18.726562 57.238281 18.523438 57.324219 18.46875 C 57.414062 18.410156 57.511719 18.175781 57.535156 17.945312 C 57.5625 17.710938 57.660156 17.386719 57.75 17.226562 C 57.839844 17.0625 57.902344 16.882812 57.886719 16.828125 C 57.871094 16.773438 57.917969 16.730469 57.992188 16.730469 C 58.066406 16.730469 58.113281 16.683594 58.101562 16.628906 C 58.042969 16.402344 58.289062 15.65625 58.425781 15.65625 C 58.503906 15.65625 58.535156 15.625 58.492188 15.582031 C 58.378906 15.464844 58.796875 14.320312 58.953125 14.320312 C 59.027344 14.320312 59.054688 14.230469 59.011719 14.117188 C 58.96875 14.007812 58.996094 13.917969 59.074219 13.917969 C 59.148438 13.917969 59.171875 13.859375 59.128906 13.785156 C 59.082031 13.710938 59.113281 13.652344 59.195312 13.652344 C 59.277344 13.652344 59.304688 13.585938 59.253906 13.507812 C 59.207031 13.429688 59.273438 13.25 59.402344 13.105469 C 59.53125 12.960938 59.601562 12.808594 59.554688 12.765625 C 59.453125 12.664062 59.859375 11.609375 60.054688 11.476562 C 60.132812 11.421875 60.152344 11.378906 60.097656 11.378906 C 59.964844 11.375 60.40625 10.265625 60.585938 10.140625 C 60.667969 10.085938 60.6875 10.039062 60.636719 10.039062 C 60.507812 10.035156 60.808594 9.203125 61.015625 8.996094 C 61.140625 8.871094 61.601562 8.835938 62.683594 8.863281 L 64.183594 8.898438 L 64.308594 9.300781 C 64.382812 9.523438 65.785156 13.09375 67.429688 17.242188 C 69.074219 21.386719 70.417969 24.835938 70.417969 24.902344 C 70.417969 25.050781 67.480469 25.066406 67.25 24.917969 C 67.058594 24.796875 66.640625 23.6875 66.78125 23.683594 C 66.835938 23.683594 66.816406 23.640625 66.742188 23.585938 C 66.539062 23.4375 66.261719 22.75 66.347656 22.609375 C 66.390625 22.539062 66.363281 22.484375 66.285156 22.484375 C 66.207031 22.484375 66.15625 22.4375 66.171875 22.382812 C 66.1875 22.328125 66.125 22.148438 66.03125 21.980469 C 65.867188 21.679688 65.851562 21.679688 62.5625 21.683594 L 59.261719 21.6875 L 58.734375 23.285156 C 58.445312 24.164062 58.125 24.914062 58.023438 24.953125 C 57.921875 24.992188 57.214844 25.027344 56.457031 25.027344 C 55.355469 25.027344 55.066406 24.984375 55.003906 24.824219 Z M 103.289062 25.332031 C 102.476562 25.191406 101.597656 24.863281 100.996094 24.476562 C 99.625 23.59375 98.414062 21.792969 98.429688 20.644531 C 98.433594 20.328125 98.386719 20.074219 98.324219 20.074219 C 98.261719 20.074219 98.210938 19.832031 98.210938 19.539062 C 98.210938 19.246094 98.273438 19.003906 98.351562 19.003906 C 98.4375 19.003906 98.457031 18.828125 98.402344 18.535156 C 98.347656 18.25 98.367188 18.066406 98.453125 18.066406 C 98.523438 18.066406 98.558594 17.960938 98.523438 17.828125 C 98.492188 17.699219 98.582031 17.453125 98.730469 17.28125 C 98.875 17.113281 98.964844 16.890625 98.921875 16.785156 C 98.882812 16.683594 98.949219 16.558594 99.066406 16.515625 C 99.183594 16.46875 99.246094 16.378906 99.203125 16.3125 C 99.164062 16.246094 99.222656 16.15625 99.335938 16.113281 C 99.453125 16.066406 99.519531 15.988281 99.484375 15.933594 C 99.414062 15.820312 100.234375 15.019531 100.816406 14.628906 C 103.035156 13.15625 106.539062 13.511719 108.375 15.398438 C 110.714844 17.804688 110.660156 21.425781 108.25 23.726562 C 107.34375 24.59375 106.648438 24.949219 105.324219 25.230469 C 104.433594 25.421875 103.9375 25.445312 103.289062 25.332031 Z M 76.304688 25.28125 C 75.390625 25.101562 74.359375 24.539062 73.511719 23.753906 C 72.75 23.046875 71.933594 21.796875 72.082031 21.558594 C 72.125 21.492188 72.089844 21.414062 72.003906 21.382812 C 71.652344 21.265625 72.261719 20.734375 73.261719 20.28125 C 73.84375 20.019531 74.367188 19.808594 74.425781 19.808594 C 74.488281 19.808594 74.632812 20.09375 74.75 20.445312 C 75.207031 21.816406 76.265625 22.609375 77.648438 22.613281 C 79.015625 22.621094 79.890625 22.148438 80.246094 21.210938 C 80.460938 20.648438 80.460938 20.574219 80.25 20.019531 C 79.960938 19.261719 79.503906 18.964844 77.277344 18.078125 C 76.308594 17.695312 75.164062 17.167969 74.738281 16.910156 C 73.875 16.390625 73.203125 15.804688 73.296875 15.652344 C 73.328125 15.597656 73.261719 15.515625 73.148438 15.472656 C 73.03125 15.429688 72.976562 15.332031 73.023438 15.257812 C 73.070312 15.183594 73.050781 15.121094 72.980469 15.121094 C 72.765625 15.121094 72.535156 14.378906 72.632812 13.992188 C 72.695312 13.75 72.667969 13.585938 72.554688 13.515625 C 72.445312 13.445312 72.421875 13.324219 72.492188 13.160156 C 72.550781 13.027344 72.609375 12.648438 72.617188 12.320312 C 72.625 11.984375 72.699219 11.707031 72.792969 11.675781 C 72.882812 11.644531 72.925781 11.566406 72.882812 11.496094 C 72.84375 11.429688 72.875 11.375 72.957031 11.375 C 73.039062 11.375 73.070312 11.320312 73.03125 11.253906 C 72.988281 11.183594 73.265625 10.789062 73.644531 10.375 C 75.191406 8.679688 77.699219 8.128906 79.980469 8.980469 C 80.59375 9.207031 80.988281 9.492188 81.71875 10.226562 C 82.242188 10.746094 82.734375 11.375 82.816406 11.617188 L 82.96875 12.0625 L 81.824219 12.589844 C 80.691406 13.109375 80.214844 13.238281 80.371094 12.980469 C 80.417969 12.90625 80.398438 12.847656 80.332031 12.847656 C 80.261719 12.847656 80.050781 12.609375 79.855469 12.316406 C 79.664062 12.023438 79.324219 11.691406 79.105469 11.578125 C 78.085938 11.050781 76.6875 11.226562 75.9375 11.976562 C 75.578125 12.335938 75.496094 12.523438 75.496094 12.980469 C 75.496094 13.914062 75.710938 14.058594 80.648438 16.40625 C 81.855469 16.976562 82.730469 17.75 83.167969 18.628906 C 83.457031 19.214844 83.511719 19.503906 83.511719 20.476562 C 83.511719 21.449219 83.457031 21.738281 83.164062 22.324219 C 82.757812 23.144531 81.898438 24.046875 81.046875 24.546875 C 79.820312 25.265625 77.8125 25.578125 76.304688 25.28125 Z M 85.746094 25.074219 C 85.691406 25.023438 85.652344 21.410156 85.652344 17.039062 L 85.652344 9.101562 L 88.722656 9.101562 L 88.722656 15.015625 L 89.179688 14.617188 C 90.3125 13.621094 92.691406 13.417969 94.210938 14.191406 C 94.898438 14.542969 95.59375 15.371094 95.953125 16.277344 C 96.253906 17.03125 96.269531 17.234375 96.3125 21.046875 L 96.359375 25.035156 L 94.847656 24.996094 L 93.335938 24.960938 L 93.261719 21.347656 C 93.179688 17.234375 93.140625 17.046875 92.257812 16.605469 C 91.148438 16.046875 89.621094 16.425781 89.0625 17.398438 C 88.8125 17.828125 88.785156 18.164062 88.722656 21.480469 L 88.65625 25.09375 L 87.246094 25.128906 C 86.472656 25.152344 85.796875 25.125 85.746094 25.074219 Z M 47.433594 18.601562 C 47.433594 14.410156 47.386719 12.179688 47.300781 12.179688 C 47.226562 12.179688 47.175781 12.132812 47.183594 12.078125 C 47.246094 11.675781 47.128906 11.648438 44.996094 11.613281 L 42.824219 11.578125 L 42.824219 9.035156 L 54.785156 8.964844 L 54.785156 11.636719 L 50.441406 11.710938 L 50.371094 25.027344 L 47.433594 25.027344 Z M 105.527344 22.230469 C 106.277344 21.847656 107.214844 20.636719 107.070312 20.242188 C 107.035156 20.148438 107.074219 20.074219 107.152344 20.074219 C 107.234375 20.074219 107.296875 19.816406 107.296875 19.472656 C 107.296875 19.140625 107.238281 18.871094 107.164062 18.871094 C 107.089844 18.871094 107.03125 18.769531 107.03125 18.648438 C 107.03125 18.242188 106.386719 17.316406 105.867188 16.972656 C 104.679688 16.1875 103.625 16.164062 102.523438 16.902344 C 101.339844 17.695312 100.863281 19.21875 101.355469 20.625 C 101.941406 22.28125 103.933594 23.050781 105.527344 22.230469 Z M 119.386719 22.171875 C 120.652344 21.496094 121.054688 19.984375 120.507812 17.949219 C 120.425781 17.640625 119.398438 16.746094 118.878906 16.527344 C 117.496094 15.949219 115.746094 16.832031 115.238281 18.363281 C 114.835938 19.574219 115.175781 21.132812 116.007812 21.910156 C 116.816406 22.667969 118.25 22.777344 119.386719 22.171875 Z M 64.941406 18.8125 C 64.941406 18.78125 64.761719 18.269531 64.542969 17.675781 C 64.324219 17.082031 64.1875 16.59375 64.242188 16.59375 C 64.292969 16.59375 64.277344 16.546875 64.203125 16.492188 C 64 16.347656 63.722656 15.65625 63.8125 15.515625 C 63.851562 15.445312 63.820312 15.390625 63.738281 15.390625 C 63.65625 15.390625 63.625 15.332031 63.671875 15.257812 C 63.714844 15.183594 63.699219 15.121094 63.632812 15.121094 C 63.539062 15.121094 63.191406 14.296875 63.125 13.917969 C 63.117188 13.878906 63.042969 13.679688 62.957031 13.472656 C 62.871094 13.265625 62.824219 13.050781 62.855469 13.003906 C 62.882812 12.953125 62.824219 12.835938 62.71875 12.742188 C 62.5625 12.597656 62.519531 12.609375 62.457031 12.808594 C 62.390625 13.015625 61.085938 16.429688 60.382812 18.234375 L 60.132812 18.871094 L 62.535156 18.871094 C 63.859375 18.871094 64.941406 18.84375 64.941406 18.8125 Z M 64.941406 18.8125 "/>
<path style=" stroke:none;fill-rule:nonzero;fill:rgb(20.784314%,31.37255%,87.843138%);fill-opacity:1;" d="M 15.765625 35.667969 C 9.050781 34.792969 3.425781 30.136719 1.285156 23.6875 C 0.605469 21.644531 0.394531 20.316406 0.398438 18.066406 C 0.398438 15.089844 0.875 12.847656 2.011719 10.449219 C 3.769531 6.757812 6.460938 3.988281 10 2.214844 C 11.375 1.527344 13.488281 0.847656 14.867188 0.648438 C 15.507812 0.558594 16.035156 0.449219 16.035156 0.40625 C 16.035156 0.367188 16.875 0.332031 17.90625 0.328125 C 18.96875 0.324219 19.777344 0.375 19.777344 0.445312 C 19.777344 0.515625 19.984375 0.535156 20.242188 0.492188 C 20.5 0.453125 20.710938 0.46875 20.710938 0.53125 C 20.710938 0.59375 21.027344 0.6875 21.414062 0.738281 C 23.414062 1.007812 26.847656 2.542969 28.867188 4.066406 C 31.621094 6.144531 33.789062 9.199219 34.933594 12.605469 C 36.335938 16.796875 36.011719 21.949219 34.105469 25.761719 C 32.382812 29.207031 29.304688 32.300781 25.988281 33.929688 C 24.257812 34.777344 23.027344 35.175781 20.976562 35.539062 C 19.003906 35.894531 17.730469 35.925781 15.765625 35.667969 Z M 16.460938 25.328125 C 16.851562 25.355469 17.679688 25.390625 18.304688 25.402344 L 19.441406 25.425781 L 19.6875 24.832031 C 19.820312 24.5 19.953125 24.125 19.976562 23.996094 C 20 23.863281 20.035156 23.738281 20.050781 23.722656 C 20.066406 23.703125 20.085938 23.613281 20.09375 23.519531 C 20.105469 23.394531 20.742188 23.34375 22.671875 23.316406 L 25.234375 23.28125 L 25.511719 24.023438 C 25.664062 24.433594 25.789062 24.828125 25.789062 24.898438 C 25.789062 25.167969 26.507812 25.292969 28.007812 25.292969 C 29.621094 25.292969 29.832031 25.210938 29.589844 24.65625 C 29.53125 24.53125 29.476562 24.394531 29.464844 24.355469 C 29.453125 24.320312 29.371094 24.121094 29.285156 23.914062 C 29.199219 23.707031 29.128906 23.453125 29.128906 23.351562 C 29.128906 23.25 29.078125 23.136719 29.015625 23.097656 C 28.949219 23.058594 28.820312 22.738281 28.726562 22.386719 C 28.632812 22.035156 28.511719 21.6875 28.457031 21.613281 C 28.40625 21.539062 28.289062 21.238281 28.199219 20.945312 C 28.113281 20.648438 28.003906 20.316406 27.960938 20.207031 C 27.917969 20.097656 27.871094 19.960938 27.855469 19.90625 C 27.839844 19.851562 27.8125 19.777344 27.792969 19.738281 C 27.773438 19.703125 27.746094 19.613281 27.726562 19.539062 C 27.707031 19.464844 27.679688 19.375 27.660156 19.339844 C 27.640625 19.300781 27.617188 19.226562 27.605469 19.171875 C 27.597656 19.117188 27.539062 18.996094 27.480469 18.902344 C 27.421875 18.808594 27.34375 18.570312 27.308594 18.371094 C 27.273438 18.171875 27.191406 17.945312 27.128906 17.871094 C 27.066406 17.792969 27.007812 17.671875 27.003906 17.597656 C 26.984375 17.414062 26.707031 16.558594 26.609375 16.394531 C 26.566406 16.320312 26.515625 16.152344 26.496094 16.023438 C 26.472656 15.890625 26.367188 15.648438 26.261719 15.480469 C 26.152344 15.316406 26.039062 15.0625 26.011719 14.917969 C 25.964844 14.660156 25.917969 14.527344 25.609375 13.71875 C 25.527344 13.496094 25.449219 13.269531 25.441406 13.214844 C 25.429688 13.160156 25.40625 13.085938 25.386719 13.046875 C 25.371094 13.011719 25.339844 12.9375 25.320312 12.882812 C 25.195312 12.515625 25.074219 12.164062 24.878906 11.578125 L 24.652344 10.90625 L 22.773438 10.871094 C 21.511719 10.84375 21 10.824219 20.714844 11.070312 C 20.511719 11.246094 20.421875 11.5625 20.253906 12.113281 C 20.121094 12.554688 19.8125 13.457031 19.570312 14.117188 C 19.328125 14.78125 19.027344 15.652344 18.902344 16.058594 C 18.773438 16.464844 18.640625 16.847656 18.605469 16.914062 C 18.515625 17.066406 17.175781 20.941406 16.816406 22.082031 C 16.667969 22.558594 16.488281 23.007812 16.421875 23.078125 C 16.355469 23.148438 16.300781 23.316406 16.300781 23.453125 C 16.300781 23.589844 16.21875 23.863281 16.117188 24.0625 C 16.015625 24.261719 15.890625 24.617188 15.839844 24.851562 L 15.75 25.277344 Z M 11.554688 25.246094 C 11.605469 25.398438 14.90625 25.398438 15.058594 25.246094 C 15.152344 25.152344 15.183594 23.75 15.210938 18.636719 L 15.234375 14.320312 L 16.269531 14.304688 C 17.953125 14.277344 18.03125 14.242188 18.308594 13.347656 C 18.4375 12.925781 18.511719 12.578125 18.476562 12.578125 C 18.4375 12.578125 18.480469 12.488281 18.574219 12.378906 C 18.664062 12.269531 18.699219 12.179688 18.648438 12.179688 C 18.597656 12.179688 18.605469 12.101562 18.660156 12.011719 C 18.769531 11.839844 18.820312 11.636719 18.875 11.175781 C 18.90625 10.910156 18.84375 10.90625 13.628906 10.953125 C 10.726562 10.976562 8.246094 11.027344 8.113281 11.0625 C 7.898438 11.121094 7.878906 11.292969 7.914062 12.757812 L 7.949219 14.386719 L 9.574219 14.386719 C 10.46875 14.386719 11.25 14.4375 11.3125 14.496094 C 11.375 14.558594 11.441406 16.96875 11.464844 19.851562 C 11.484375 22.734375 11.523438 25.160156 11.554688 25.246094 Z M 24 19.886719 C 23.945312 20.027344 23.628906 20.074219 22.675781 20.074219 C 21.988281 20.074219 21.386719 20.039062 21.347656 19.996094 C 21.304688 19.953125 21.328125 19.726562 21.402344 19.492188 C 21.476562 19.261719 21.566406 18.980469 21.601562 18.871094 C 21.632812 18.761719 21.664062 18.636719 21.667969 18.601562 C 21.667969 18.566406 21.730469 18.460938 21.808594 18.367188 C 21.882812 18.277344 21.90625 18.199219 21.859375 18.199219 C 21.8125 18.199219 21.828125 18.089844 21.902344 17.953125 C 21.976562 17.816406 22.070312 17.53125 22.113281 17.316406 C 22.207031 16.878906 22.28125 16.558594 22.320312 16.460938 C 22.335938 16.421875 22.339844 16.355469 22.335938 16.308594 C 22.3125 16.132812 22.726562 15.882812 22.832031 16.003906 C 23.03125 16.234375 24.070312 19.695312 24 19.886719 Z M 24 19.886719 "/>
<path style=" stroke:none;fill-rule:nonzero;fill:rgb(99.607843%,99.607843%,99.607843%);fill-opacity:1;" d="M 11.554688 25.246094 C 11.523438 25.160156 11.484375 22.734375 11.464844 19.851562 C 11.441406 16.96875 11.375 14.558594 11.3125 14.496094 C 11.25 14.4375 10.46875 14.386719 9.574219 14.386719 L 7.949219 14.386719 L 7.914062 12.757812 C 7.878906 11.292969 7.898438 11.121094 8.113281 11.0625 C 8.246094 11.027344 10.726562 10.976562 13.628906 10.953125 C 18.84375 10.90625 18.90625 10.910156 18.875 11.175781 C 18.820312 11.636719 18.769531 11.839844 18.660156 12.011719 C 18.605469 12.101562 18.597656 12.179688 18.648438 12.179688 C 18.699219 12.179688 18.664062 12.269531 18.574219 12.378906 C 18.480469 12.488281 18.4375 12.578125 18.476562 12.578125 C 18.511719 12.578125 18.4375 12.925781 18.308594 13.347656 C 18.03125 14.242188 17.953125 14.277344 16.269531 14.304688 L 15.234375 14.320312 L 15.210938 18.636719 C 15.183594 23.75 15.152344 25.152344 15.058594 25.246094 C 14.90625 25.398438 11.605469 25.398438 11.554688 25.246094 Z M 16.460938 25.328125 L 15.75 25.277344 L 15.839844 24.851562 C 15.890625 24.617188 16.015625 24.261719 16.117188 24.0625 C 16.21875 23.863281 16.300781 23.589844 16.300781 23.453125 C 16.300781 23.316406 16.355469 23.148438 16.421875 23.078125 C 16.488281 23.007812 16.667969 22.558594 16.816406 22.082031 C 17.175781 20.941406 18.515625 17.066406 18.605469 16.914062 C 18.640625 16.847656 18.773438 16.464844 18.902344 16.058594 C 19.027344 15.652344 19.328125 14.78125 19.570312 14.117188 C 19.8125 13.457031 20.121094 12.554688 20.253906 12.113281 C 20.652344 10.800781 20.601562 10.828125 22.773438 10.871094 L 24.652344 10.90625 L 24.878906 11.578125 C 25.074219 12.164062 25.195312 12.515625 25.320312 12.882812 C 25.339844 12.9375 25.371094 13.011719 25.386719 13.046875 C 25.40625 13.085938 25.429688 13.160156 25.441406 13.214844 C 25.449219 13.269531 25.527344 13.496094 25.609375 13.71875 C 25.917969 14.527344 25.964844 14.660156 26.011719 14.917969 C 26.039062 15.0625 26.152344 15.316406 26.261719 15.480469 C 26.367188 15.648438 26.472656 15.890625 26.496094 16.023438 C 26.515625 16.152344 26.566406 16.320312 26.609375 16.394531 C 26.707031 16.558594 26.984375 17.414062 27.003906 17.597656 C 27.007812 17.671875 27.066406 17.792969 27.128906 17.871094 C 27.191406 17.945312 27.273438 18.171875 27.308594 18.371094 C 27.34375 18.570312 27.421875 18.808594 27.480469 18.902344 C 27.539062 18.996094 27.597656 19.117188 27.605469 19.171875 C 27.617188 19.226562 27.640625 19.300781 27.660156 19.339844 C 27.679688 19.375 27.707031 19.464844 27.726562 19.539062 C 27.746094 19.613281 27.773438 19.703125 27.792969 19.738281 C 27.8125 19.777344 27.839844 19.851562 27.855469 19.90625 C 27.871094 19.960938 27.917969 20.097656 27.960938 20.207031 C 28.003906 20.316406 28.113281 20.648438 28.199219 20.945312 C 28.289062 21.238281 28.40625 21.539062 28.457031 21.613281 C 28.511719 21.6875 28.632812 22.035156 28.726562 22.386719 C 28.820312 22.738281 28.949219 23.058594 29.015625 23.097656 C 29.078125 23.136719 29.128906 23.25 29.128906 23.351562 C 29.128906 23.453125 29.199219 23.707031 29.285156 23.914062 C 29.371094 24.121094 29.453125 24.320312 29.464844 24.355469 C 29.476562 24.394531 29.53125 24.53125 29.589844 24.65625 C 29.832031 25.210938 29.621094 25.292969 28.007812 25.292969 C 26.507812 25.292969 25.789062 25.167969 25.789062 24.898438 C 25.789062 24.828125 25.664062 24.433594 25.511719 24.023438 L 25.234375 23.28125 L 22.671875 23.316406 C 20.742188 23.34375 20.105469 23.394531 20.09375 23.519531 C 20.085938 23.613281 20.066406 23.703125 20.050781 23.722656 C 20.035156 23.738281 20 23.863281 19.976562 23.996094 C 19.953125 24.125 19.820312 24.5 19.6875 24.832031 L 19.441406 25.425781 L 18.304688 25.402344 C 17.679688 25.390625 16.851562 25.355469 16.460938 25.328125 Z M 24 19.886719 C 24.070312 19.695312 23.03125 16.234375 22.832031 16.003906 C 22.726562 15.882812 22.3125 16.132812 22.335938 16.308594 C 22.339844 16.355469 22.335938 16.421875 22.320312 16.460938 C 22.28125 16.558594 22.207031 16.878906 22.113281 17.316406 C 22.070312 17.53125 21.976562 17.816406 21.902344 17.953125 C 21.828125 18.089844 21.8125 18.199219 21.859375 18.199219 C 21.90625 18.199219 21.882812 18.277344 21.808594 18.367188 C 21.730469 18.460938 21.667969 18.566406 21.667969 18.601562 C 21.664062 18.636719 21.632812 18.761719 21.601562 18.871094 C 21.566406 18.980469 21.476562 19.261719 21.402344 19.492188 C 21.328125 19.726562 21.304688 19.953125 21.347656 19.996094 C 21.386719 20.039062 21.988281 20.074219 22.675781 20.074219 C 23.628906 20.074219 23.945312 20.027344 24 19.886719 Z M 24 19.886719 "/>
</g>
</svg>
